<svg baseProfile="full" height="150px" version="1.1" viewBox="0 0 150 150" width="150px" xml:space="preserve" xmlns="http://www.w3.org/2000/svg" xmlns:rdkit="http://www.rdkit.org/xml" xmlns:xlink="http://www.w3.org/1999/xlink">
<!-- END OF HEADER -->
<rect height="150.0" style="opacity:1.0;fill:#FFFFFF;stroke:none" width="150.0" x="0.0" y="0.0"> </rect>
<ellipse class="atom-1" cx="40.2" cy="114.8" rx="8.7" ry="8.7" style="fill:#E5E533;fill-rule:evenodd;stroke:#E5E533;stroke-width:1.0px;stroke-linecap:butt;stroke-linejoin:miter;stroke-opacity:1"/>
<ellipse class="atom-2" cx="65.3" cy="100.2" rx="8.7" ry="8.7" style="fill:#E5E533;fill-rule:evenodd;stroke:#E5E533;stroke-width:1.0px;stroke-linecap:butt;stroke-linejoin:miter;stroke-opacity:1"/>
<ellipse class="atom-3" cx="65.3" cy="71.2" rx="8.7" ry="8.7" style="fill:#9999E5;fill-rule:evenodd;stroke:#9999E5;stroke-width:1.0px;stroke-linecap:butt;stroke-linejoin:miter;stroke-opacity:1"/>
<ellipse class="atom-8" cx="90.5" cy="114.7" rx="8.7" ry="8.7" style="fill:#E5E533;fill-rule:evenodd;stroke:#E5E533;stroke-width:1.0px;stroke-linecap:butt;stroke-linejoin:miter;stroke-opacity:1"/>
<path class="bond-0 atom-0 atom-1" d="M 40.2,136.6 L 40.2,114.8" style="fill:none;fill-rule:evenodd;stroke:#E5E5E5;stroke-width:2.3px;stroke-linecap:butt;stroke-linejoin:miter;stroke-opacity:1"/>
<path class="bond-0 atom-0 atom-1" d="M 44.6,136.6 L 44.5,117.3" style="fill:none;fill-rule:evenodd;stroke:#E5E5E5;stroke-width:2.3px;stroke-linecap:butt;stroke-linejoin:miter;stroke-opacity:1;stroke-dasharray:6,4"/>
<path class="bond-1 atom-1 atom-2" d="M 40.2,114.8 L 65.3,100.2" style="fill:none;fill-rule:evenodd;stroke:#000000;stroke-width:2.0px;stroke-linecap:butt;stroke-linejoin:miter;stroke-opacity:1"/>
<path class="bond-1 atom-1 atom-2" d="M 44.5,117.3 L 65.3,105.3" style="fill:none;fill-rule:evenodd;stroke:#000000;stroke-width:2.0px;stroke-linecap:butt;stroke-linejoin:miter;stroke-opacity:1;stroke-dasharray:6,4"/>
<path class="bond-2 atom-2 atom-3" d="M 65.3,100.2 L 65.3,89.3" style="fill:none;fill-rule:evenodd;stroke:#000000;stroke-width:2.0px;stroke-linecap:butt;stroke-linejoin:miter;stroke-opacity:1"/>
<path class="bond-2 atom-2 atom-3" d="M 65.3,89.3 L 65.3,78.3" style="fill:none;fill-rule:evenodd;stroke:#0000FF;stroke-width:2.0px;stroke-linecap:butt;stroke-linejoin:miter;stroke-opacity:1"/>
<path class="bond-3 atom-3 atom-4" d="M 70.9,67.9 L 80.7,62.3" style="fill:none;fill-rule:evenodd;stroke:#0000FF;stroke-width:2.0px;stroke-linecap:butt;stroke-linejoin:miter;stroke-opacity:1"/>
<path class="bond-3 atom-3 atom-4" d="M 80.7,62.3 L 90.4,56.7" style="fill:none;fill-rule:evenodd;stroke:#000000;stroke-width:2.0px;stroke-linecap:butt;stroke-linejoin:miter;stroke-opacity:1"/>
<path class="bond-4 atom-4 atom-5" d="M 90.4,56.7 L 115.6,71.2" style="fill:none;fill-rule:evenodd;stroke:#000000;stroke-width:2.0px;stroke-linecap:butt;stroke-linejoin:miter;stroke-opacity:1"/>
<path class="bond-5 atom-4 atom-6" d="M 90.4,56.7 L 90.4,27.6" style="fill:none;fill-rule:evenodd;stroke:#000000;stroke-width:2.0px;stroke-linecap:butt;stroke-linejoin:miter;stroke-opacity:1"/>
<path class="bond-6 atom-6 atom-7" d="M 90.4,27.6 L 115.0,13.4" style="fill:none;fill-rule:evenodd;stroke:#E5E5E5;stroke-width:2.3px;stroke-linecap:butt;stroke-linejoin:miter;stroke-opacity:1"/>
<path class="bond-7 atom-2 atom-8" d="M 65.3,100.2 L 90.5,114.7" style="fill:none;fill-rule:evenodd;stroke:#000000;stroke-width:2.0px;stroke-linecap:butt;stroke-linejoin:miter;stroke-opacity:1"/>
<path class="bond-7 atom-2 atom-8" d="M 65.3,105.3 L 86.1,117.3" style="fill:none;fill-rule:evenodd;stroke:#000000;stroke-width:2.0px;stroke-linecap:butt;stroke-linejoin:miter;stroke-opacity:1;stroke-dasharray:6,4"/>
<path class="bond-8 atom-8 atom-9" d="M 90.5,117.2 L 116.1,102.4" style="fill:none;fill-rule:evenodd;stroke:#E5E5E5;stroke-width:2.3px;stroke-linecap:butt;stroke-linejoin:miter;stroke-opacity:1"/>
<path class="bond-8 atom-8 atom-9" d="M 88.3,113.5 L 113.9,98.6" style="fill:none;fill-rule:evenodd;stroke:#E5E5E5;stroke-width:2.3px;stroke-linecap:butt;stroke-linejoin:miter;stroke-opacity:1;stroke-dasharray:6,4"/>
<path class="bond-9 atom-10 atom-8" d="M 88.3,136.5 L 88.3,113.5" style="fill:none;fill-rule:evenodd;stroke:#E5E5E5;stroke-width:2.3px;stroke-linecap:butt;stroke-linejoin:miter;stroke-opacity:1"/>
<path class="bond-9 atom-10 atom-8" d="M 92.7,136.5 L 92.7,113.5" style="fill:none;fill-rule:evenodd;stroke:#E5E5E5;stroke-width:2.3px;stroke-linecap:butt;stroke-linejoin:miter;stroke-opacity:1;stroke-dasharray:6,4"/>
<path d="M 40.2,115.3 L 40.2,114.8 L 40.8,114.4" style="fill:none;stroke:#E5E5E5;stroke-width:2.3px;stroke-linecap:butt;stroke-linejoin:miter;stroke-opacity:1;"/>
<path d="M 90.4,28.4 L 90.4,27.6 L 91.0,27.3" style="fill:none;stroke:#000000;stroke-width:2.0px;stroke-linecap:butt;stroke-linejoin:miter;stroke-opacity:1;"/>
<path class="atom-0" d="M 40.1 142.4 L 41.9 140.6 L 39.5 140.1 L 39.8 138.9 L 42.0 140.0 L 41.7 137.6 L 43.0 137.5 L 42.7 140.0 L 44.9 138.9 L 45.3 140.1 L 42.9 140.6 L 44.6 142.4 L 43.5 143.2 L 42.3 140.9 L 41.1 143.2 L 40.1 142.4 " fill="#191919"/>
<path class="atom-3" d="M 48.5 65.0 L 50.2 65.0 L 50.2 70.3 L 56.5 70.3 L 56.5 65.0 L 58.2 65.0 L 58.2 77.4 L 56.5 77.4 L 56.5 71.7 L 50.2 71.7 L 50.2 77.4 L 48.5 77.4 L 48.5 65.0 " fill="#0000FF"/>
<path class="atom-3" d="M 62.6 65.0 L 66.6 71.6 Q 67.0 72.2, 67.7 73.4 Q 68.3 74.5, 68.3 74.6 L 68.3 65.0 L 70.0 65.0 L 70.0 77.4 L 68.3 77.4 L 63.9 70.2 Q 63.4 69.4, 62.9 68.4 Q 62.4 67.5, 62.2 67.2 L 62.2 77.4 L 60.6 77.4 L 60.6 65.0 L 62.6 65.0 " fill="#0000FF"/>
<path class="atom-7" d="M 113.2 11.7 L 115.0 9.9 L 112.6 9.4 L 113.0 8.1 L 115.2 9.3 L 114.9 6.8 L 116.2 6.8 L 115.8 9.2 L 118.1 8.2 L 118.5 9.4 L 116.0 9.8 L 117.8 11.7 L 116.7 12.5 L 115.5 10.2 L 114.3 12.5 L 113.2 11.7 " fill="#191919"/>
<path class="atom-9" d="M 113.3 98.8 L 115.1 97.0 L 112.7 96.5 L 113.1 95.3 L 115.3 96.4 L 115.0 93.9 L 116.3 93.9 L 115.9 96.3 L 118.1 95.3 L 118.5 96.5 L 116.1 96.9 L 117.8 98.8 L 116.8 99.6 L 115.6 97.3 L 114.3 99.6 L 113.3 98.8 " fill="#191919"/>
<path class="atom-10" d="M 88.2 142.4 L 90.0 140.6 L 87.6 140.1 L 87.9 138.8 L 90.2 139.9 L 89.8 137.5 L 91.2 137.5 L 90.8 139.9 L 93.0 138.9 L 93.4 140.1 L 91.0 140.5 L 92.7 142.4 L 91.7 143.1 L 90.5 140.8 L 89.2 143.1 L 88.2 142.4 " fill="#191919"/>
</svg>