<svg baseProfile="full" height="150px" version="1.1" viewBox="0 0 150 150" width="150px" xml:space="preserve" xmlns="http://www.w3.org/2000/svg" xmlns:rdkit="http://www.rdkit.org/xml" xmlns:xlink="http://www.w3.org/1999/xlink">
<!-- END OF HEADER -->
<rect height="150.0" style="opacity:1.0;fill:#FFFFFF;stroke:none" width="150.0" x="0.0" y="0.0"> </rect>
<ellipse class="atom-1" cx="30.5" cy="58.3" rx="7.6" ry="7.6" style="fill:#E5E533;fill-rule:evenodd;stroke:#E5E533;stroke-width:1.0px;stroke-linecap:butt;stroke-linejoin:miter;stroke-opacity:1"/>
<ellipse class="atom-2" cx="52.5" cy="71.1" rx="7.6" ry="7.6" style="fill:#E5E533;fill-rule:evenodd;stroke:#E5E533;stroke-width:1.0px;stroke-linecap:butt;stroke-linejoin:miter;stroke-opacity:1"/>
<ellipse class="atom-3" cx="74.5" cy="58.4" rx="7.6" ry="7.6" style="fill:#9999E5;fill-rule:evenodd;stroke:#9999E5;stroke-width:1.0px;stroke-linecap:butt;stroke-linejoin:miter;stroke-opacity:1"/>
<ellipse class="atom-8" cx="52.5" cy="96.5" rx="7.6" ry="7.6" style="fill:#E5E533;fill-rule:evenodd;stroke:#E5E533;stroke-width:1.0px;stroke-linecap:butt;stroke-linejoin:miter;stroke-opacity:1"/>
<path class="bond-0 atom-0 atom-1" d="M 11.8,69.1 L 30.5,58.3" style="fill:none;fill-rule:evenodd;stroke:#E5E5E5;stroke-width:2.0px;stroke-linecap:butt;stroke-linejoin:miter;stroke-opacity:1"/>
<path class="bond-0 atom-0 atom-1" d="M 13.7,72.4 L 30.5,62.7" style="fill:none;fill-rule:evenodd;stroke:#E5E5E5;stroke-width:2.0px;stroke-linecap:butt;stroke-linejoin:miter;stroke-opacity:1;stroke-dasharray:6,4"/>
<path class="bond-1 atom-1 atom-2" d="M 30.5,58.3 L 52.5,71.1" style="fill:none;fill-rule:evenodd;stroke:#000000;stroke-width:2.0px;stroke-linecap:butt;stroke-linejoin:miter;stroke-opacity:1"/>
<path class="bond-1 atom-1 atom-2" d="M 30.5,62.7 L 48.7,73.3" style="fill:none;fill-rule:evenodd;stroke:#000000;stroke-width:2.0px;stroke-linecap:butt;stroke-linejoin:miter;stroke-opacity:1;stroke-dasharray:6,4"/>
<path class="bond-2 atom-2 atom-3" d="M 52.5,71.1 L 61.0,66.1" style="fill:none;fill-rule:evenodd;stroke:#000000;stroke-width:2.0px;stroke-linecap:butt;stroke-linejoin:miter;stroke-opacity:1"/>
<path class="bond-2 atom-2 atom-3" d="M 61.0,66.1 L 69.6,61.2" style="fill:none;fill-rule:evenodd;stroke:#0000FF;stroke-width:2.0px;stroke-linecap:butt;stroke-linejoin:miter;stroke-opacity:1"/>
<path class="bond-3 atom-3 atom-4" d="M 79.5,61.2 L 88.0,66.2" style="fill:none;fill-rule:evenodd;stroke:#0000FF;stroke-width:2.0px;stroke-linecap:butt;stroke-linejoin:miter;stroke-opacity:1"/>
<path class="bond-3 atom-3 atom-4" d="M 88.0,66.2 L 96.6,71.1" style="fill:none;fill-rule:evenodd;stroke:#000000;stroke-width:2.0px;stroke-linecap:butt;stroke-linejoin:miter;stroke-opacity:1"/>
<path class="bond-4 atom-4 atom-5" d="M 96.6,71.1 L 96.5,96.5" style="fill:none;fill-rule:evenodd;stroke:#000000;stroke-width:2.0px;stroke-linecap:butt;stroke-linejoin:miter;stroke-opacity:1"/>
<path class="bond-5 atom-4 atom-6" d="M 96.6,71.1 L 118.6,58.4" style="fill:none;fill-rule:evenodd;stroke:#000000;stroke-width:2.0px;stroke-linecap:butt;stroke-linejoin:miter;stroke-opacity:1"/>
<path class="bond-6 atom-6 atom-7" d="M 118.6,58.4 L 137.2,69.2" style="fill:none;fill-rule:evenodd;stroke:#E5E5E5;stroke-width:2.0px;stroke-linecap:butt;stroke-linejoin:miter;stroke-opacity:1"/>
<path class="bond-7 atom-2 atom-8" d="M 52.5,71.1 L 52.5,96.5" style="fill:none;fill-rule:evenodd;stroke:#000000;stroke-width:2.0px;stroke-linecap:butt;stroke-linejoin:miter;stroke-opacity:1"/>
<path class="bond-7 atom-2 atom-8" d="M 48.7,73.3 L 48.7,94.3" style="fill:none;fill-rule:evenodd;stroke:#000000;stroke-width:2.0px;stroke-linecap:butt;stroke-linejoin:miter;stroke-opacity:1;stroke-dasharray:6,4"/>
<path class="bond-8 atom-8 atom-9" d="M 50.6,97.6 L 70.1,108.9" style="fill:none;fill-rule:evenodd;stroke:#E5E5E5;stroke-width:2.0px;stroke-linecap:butt;stroke-linejoin:miter;stroke-opacity:1"/>
<path class="bond-8 atom-8 atom-9" d="M 52.5,94.3 L 72.1,105.6" style="fill:none;fill-rule:evenodd;stroke:#E5E5E5;stroke-width:2.0px;stroke-linecap:butt;stroke-linejoin:miter;stroke-opacity:1;stroke-dasharray:6,4"/>
<path class="bond-9 atom-10 atom-8" d="M 32.9,105.6 L 52.5,94.3" style="fill:none;fill-rule:evenodd;stroke:#E5E5E5;stroke-width:2.0px;stroke-linecap:butt;stroke-linejoin:miter;stroke-opacity:1"/>
<path class="bond-9 atom-10 atom-8" d="M 34.8,108.9 L 54.4,97.6" style="fill:none;fill-rule:evenodd;stroke:#E5E5E5;stroke-width:2.0px;stroke-linecap:butt;stroke-linejoin:miter;stroke-opacity:1;stroke-dasharray:6,4"/>
<path d="M 30.0,58.6 L 30.5,58.3 L 31.0,58.6" style="fill:none;stroke:#E5E5E5;stroke-width:2.0px;stroke-linecap:butt;stroke-linejoin:miter;stroke-opacity:1;"/>
<path d="M 118.1,58.7 L 118.6,58.4 L 119.1,58.7" style="fill:none;stroke:#000000;stroke-width:2.0px;stroke-linecap:butt;stroke-linejoin:miter;stroke-opacity:1;"/>
<path class="atom-0" d="M 7.3 71.5 L 8.9 69.9 L 6.8 69.4 L 7.1 68.3 L 9.1 69.3 L 8.8 67.2 L 9.9 67.2 L 9.6 69.3 L 11.6 68.4 L 11.9 69.4 L 9.8 69.8 L 11.3 71.5 L 10.4 72.1 L 9.3 70.1 L 8.3 72.1 L 7.3 71.5 " fill="#191919"/>
<path class="atom-3" d="M 72.1 53.0 L 75.7 58.7 Q 76.0 59.2, 76.6 60.3 Q 77.2 61.3, 77.2 61.4 L 77.2 53.0 L 78.6 53.0 L 78.6 63.8 L 77.2 63.8 L 73.4 57.5 Q 72.9 56.8, 72.4 55.9 Q 72.0 55.1, 71.8 54.8 L 71.8 63.8 L 70.4 63.8 L 70.4 53.0 L 72.1 53.0 " fill="#0000FF"/>
<path class="atom-3" d="M 70.3 41.1 L 71.8 41.1 L 71.8 45.7 L 77.3 45.7 L 77.3 41.1 L 78.8 41.1 L 78.8 51.9 L 77.3 51.9 L 77.3 46.9 L 71.8 46.9 L 71.8 51.9 L 70.3 51.9 L 70.3 41.1 " fill="#0000FF"/>
<path class="atom-7" d="M 138.6 69.9 L 140.2 68.3 L 138.1 67.9 L 138.4 66.8 L 140.3 67.8 L 140.1 65.7 L 141.2 65.6 L 140.9 67.8 L 142.8 66.8 L 143.2 67.9 L 141.0 68.3 L 142.6 69.9 L 141.6 70.6 L 140.6 68.6 L 139.5 70.6 L 138.6 69.9 " fill="#191919"/>
<path class="atom-9" d="M 72.5 108.0 L 74.0 106.4 L 71.9 106.0 L 72.3 104.9 L 74.2 105.9 L 73.9 103.8 L 75.1 103.7 L 74.7 105.9 L 76.7 105.0 L 77.1 106.0 L 74.9 106.4 L 76.4 108.0 L 75.5 108.7 L 74.5 106.7 L 73.4 108.7 L 72.5 108.0 " fill="#191919"/>
<path class="atom-10" d="M 28.4 108.0 L 30.0 106.4 L 27.9 106.0 L 28.2 104.9 L 30.1 105.9 L 29.9 103.7 L 31.0 103.7 L 30.7 105.8 L 32.7 104.9 L 33.0 106.0 L 30.8 106.4 L 32.4 108.0 L 31.4 108.7 L 30.4 106.6 L 29.3 108.7 L 28.4 108.0 " fill="#191919"/>
</svg>