<svg baseProfile="full" height="150px" version="1.1" viewBox="0 0 150 150" width="150px" xml:space="preserve" xmlns="http://www.w3.org/2000/svg" xmlns:rdkit="http://www.rdkit.org/xml" xmlns:xlink="http://www.w3.org/1999/xlink">
<!-- END OF HEADER -->
<rect height="150.0" style="opacity:1.0;fill:#FFFFFF;stroke:none" width="150.0" x="0.0" y="0.0"> </rect>
<ellipse class="atom-1" cx="62.5" cy="129.0" rx="8.7" ry="8.7" style="fill:#E5E533;fill-rule:evenodd;stroke:#E5E533;stroke-width:1.0px;stroke-linecap:butt;stroke-linejoin:miter;stroke-opacity:1"/>
<ellipse class="atom-3" cx="87.6" cy="85.5" rx="8.7" ry="8.7" style="fill:#9999E5;fill-rule:evenodd;stroke:#9999E5;stroke-width:1.0px;stroke-linecap:butt;stroke-linejoin:miter;stroke-opacity:1"/>
<path class="bond-0 atom-0 atom-1" d="M 40.2,139.4 L 62.5,126.5" style="fill:none;fill-rule:evenodd;stroke:#E5E5E5;stroke-width:2.3px;stroke-linecap:butt;stroke-linejoin:miter;stroke-opacity:1"/>
<path class="bond-0 atom-0 atom-1" d="M 42.4,143.2 L 64.7,130.3" style="fill:none;fill-rule:evenodd;stroke:#E5E5E5;stroke-width:2.3px;stroke-linecap:butt;stroke-linejoin:miter;stroke-opacity:1;stroke-dasharray:6,4"/>
<path class="bond-1 atom-1 atom-2" d="M 62.5,129.0 L 62.5,118.1" style="fill:none;fill-rule:evenodd;stroke:#000000;stroke-width:2.0px;stroke-linecap:butt;stroke-linejoin:miter;stroke-opacity:1"/>
<path class="bond-1 atom-1 atom-2" d="M 62.5,118.1 L 62.5,107.2" style="fill:none;fill-rule:evenodd;stroke:#0000FF;stroke-width:2.0px;stroke-linecap:butt;stroke-linejoin:miter;stroke-opacity:1"/>
<path class="bond-2 atom-2 atom-3" d="M 68.1,96.8 L 77.8,91.2" style="fill:none;fill-rule:evenodd;stroke:#0000FF;stroke-width:2.0px;stroke-linecap:butt;stroke-linejoin:miter;stroke-opacity:1"/>
<path class="bond-2 atom-2 atom-3" d="M 77.8,91.2 L 87.6,85.5" style="fill:none;fill-rule:evenodd;stroke:#000000;stroke-width:2.0px;stroke-linecap:butt;stroke-linejoin:miter;stroke-opacity:1"/>
<path class="bond-3 atom-3 atom-4" d="M 87.6,85.5 L 112.7,100.0" style="fill:none;fill-rule:evenodd;stroke:#000000;stroke-width:2.0px;stroke-linecap:butt;stroke-linejoin:miter;stroke-opacity:1"/>
<path class="bond-4 atom-3 atom-5" d="M 87.6,85.5 L 87.5,56.6" style="fill:none;fill-rule:evenodd;stroke:#000000;stroke-width:2.0px;stroke-linecap:butt;stroke-linejoin:miter;stroke-opacity:1"/>
<path class="bond-5 atom-5 atom-6" d="M 87.5,56.6 L 112.6,42.1" style="fill:none;fill-rule:evenodd;stroke:#000000;stroke-width:2.0px;stroke-linecap:butt;stroke-linejoin:miter;stroke-opacity:1"/>
<path class="bond-6 atom-6 atom-7" d="M 112.6,42.1 L 112.6,13.4" style="fill:none;fill-rule:evenodd;stroke:#E5E5E5;stroke-width:2.3px;stroke-linecap:butt;stroke-linejoin:miter;stroke-opacity:1"/>
<path class="bond-7 atom-1 atom-8" d="M 60.3,130.3 L 82.6,143.2" style="fill:none;fill-rule:evenodd;stroke:#E5E5E5;stroke-width:2.3px;stroke-linecap:butt;stroke-linejoin:miter;stroke-opacity:1"/>
<path class="bond-7 atom-1 atom-8" d="M 62.5,126.5 L 84.8,139.4" style="fill:none;fill-rule:evenodd;stroke:#E5E5E5;stroke-width:2.3px;stroke-linecap:butt;stroke-linejoin:miter;stroke-opacity:1;stroke-dasharray:6,4"/>
<path d="M 87.5,58.0 L 87.5,56.6 L 88.8,55.8" style="fill:none;stroke:#000000;stroke-width:2.0px;stroke-linecap:butt;stroke-linejoin:miter;stroke-opacity:1;"/>
<path d="M 112.0,42.4 L 112.6,42.1 L 112.6,41.3" style="fill:none;stroke:#000000;stroke-width:2.0px;stroke-linecap:butt;stroke-linejoin:miter;stroke-opacity:1;"/>
<path class="atom-0" d="M 35.1 142.2 L 36.9 140.3 L 34.5 139.8 L 34.9 138.6 L 37.1 139.7 L 36.8 137.3 L 38.1 137.3 L 37.7 139.7 L 39.9 138.7 L 40.3 139.8 L 37.9 140.3 L 39.6 142.1 L 38.6 142.9 L 37.4 140.6 L 36.1 142.9 L 35.1 142.2 " fill="#191919"/>
<path class="atom-2" d="M 45.7 93.9 L 47.4 93.9 L 47.4 99.1 L 53.7 99.1 L 53.7 93.9 L 55.4 93.9 L 55.4 106.2 L 53.7 106.2 L 53.7 100.5 L 47.4 100.5 L 47.4 106.2 L 45.7 106.2 L 45.7 93.9 " fill="#0000FF"/>
<path class="atom-2" d="M 59.7 93.9 L 63.8 100.4 Q 64.2 101.1, 64.8 102.2 Q 65.5 103.4, 65.5 103.5 L 65.5 93.9 L 67.1 93.9 L 67.1 106.2 L 65.5 106.2 L 61.1 99.1 Q 60.6 98.2, 60.1 97.3 Q 59.6 96.3, 59.4 96.0 L 59.4 106.2 L 57.8 106.2 L 57.8 93.9 L 59.7 93.9 " fill="#0000FF"/>
<path class="atom-7" d="M 110.3 11.7 L 112.1 9.9 L 109.7 9.4 L 110.0 8.1 L 112.3 9.3 L 111.9 6.8 L 113.2 6.8 L 112.9 9.2 L 115.1 8.2 L 115.5 9.4 L 113.1 9.8 L 114.8 11.7 L 113.7 12.5 L 112.5 10.2 L 111.3 12.5 L 110.3 11.7 " fill="#191919"/>
<path class="atom-8" d="M 85.3 142.1 L 87.1 140.3 L 84.7 139.8 L 85.1 138.6 L 87.3 139.7 L 86.9 137.3 L 88.3 137.2 L 87.9 139.7 L 90.1 138.6 L 90.5 139.8 L 88.1 140.2 L 89.8 142.1 L 88.8 142.9 L 87.6 140.6 L 86.3 142.9 L 85.3 142.1 " fill="#191919"/>
</svg>